<svg width="25" height="24" viewBox="0 0 25 24" fill="none" xmlns="http://www.w3.org/2000/svg">
<path d="M3.5 22C3.23478 22 2.98043 21.8946 2.79289 21.7071C2.60536 21.5196 2.5 21.2652 2.5 21V3C2.5 2.73478 2.60536 2.48043 2.79289 2.29289C2.98043 2.10536 3.23478 2 3.5 2C3.76522 2 4.01957 2.10536 4.20711 2.29289C4.39464 2.48043 4.5 2.73478 4.5 3V21C4.5 21.2652 4.39464 21.5196 4.20711 21.7071C4.01957 21.8946 3.76522 22 3.5 22ZM16 2.134C15.848 2.04623 15.6755 2.00003 15.5 2.00003C15.3245 2.00002 15.152 2.04623 15 2.13399C14.848 2.22176 14.7218 2.34799 14.634 2.50001C14.5462 2.65202 14.5 2.82447 14.5 3V21C14.5 21.2652 14.6054 21.5196 14.7929 21.7071C14.9804 21.8946 15.2348 22 15.5 22H21.5C21.7652 22 22.0196 21.8946 22.2071 21.7071C22.3946 21.5196 22.5 21.2652 22.5 21V6.464C22.5 6.28847 22.4538 6.11603 22.366 5.96401C22.2782 5.812 22.152 5.68577 22 5.598L16 2.134ZM9.5 2C9.23478 2 8.98043 2.10536 8.79289 2.29289C8.60536 2.48043 8.5 2.73478 8.5 3V21C8.5 21.2652 8.60536 21.5196 8.79289 21.7071C8.98043 21.8946 9.23478 22 9.5 22C9.76522 22 10.0196 21.8946 10.2071 21.7071C10.3946 21.5196 10.5 21.2652 10.5 21V3C10.5 2.73478 10.3946 2.48043 10.2071 2.29289C10.0196 2.10536 9.76522 2 9.5 2Z" fill="#b3b3b3"/>
</svg>
